<?xml version="1.0" encoding="UTF-8" standalone="no"?>
<!-- Created with Inkscape (http://www.inkscape.org/) -->

<svg
   xmlns:dc="http://purl.org/dc/elements/1.1/"
   xmlns:cc="http://creativecommons.org/ns#"
   xmlns:rdf="http://www.w3.org/1999/02/22-rdf-syntax-ns#"
   xmlns:svg="http://www.w3.org/2000/svg"
   xmlns="http://www.w3.org/2000/svg"
   xmlns:xlink="http://www.w3.org/1999/xlink"
   xmlns:sodipodi="http://sodipodi.sourceforge.net/DTD/sodipodi-0.dtd"
   xmlns:inkscape="http://www.inkscape.org/namespaces/inkscape"
   width="111.18185mm"
   height="111.18185mm"
   viewBox="0 0 111.18185 111.18185"
   version="1.1"
   id="svg1651"
   inkscape:version="0.92.3 (2405546, 2018-03-11)"
   sodipodi:docname="drawing-1.svg">
  <defs
     id="defs1645">
    <clipPath
       clipPathUnits="userSpaceOnUse"
       id="clipPath20">
      <path
         d="M 0,500 H 500 V 0 H 0 Z"
         id="path18"
         inkscape:connector-curvature="0" />
    </clipPath>
    <clipPath
       clipPathUnits="userSpaceOnUse"
       id="clipPath905">
      <use
         x="0"
         y="0"
         xlink:href="#g901"
         id="use907"
         width="100%"
         height="100%" />
    </clipPath>
  </defs>
  <sodipodi:namedview
     id="base"
     pagecolor="#ffffff"
     bordercolor="#666666"
     borderopacity="1.0"
     inkscape:pageopacity="0.0"
     inkscape:pageshadow="2"
     inkscape:zoom="0.98994949"
     inkscape:cx="-70.501786"
     inkscape:cy="173.3845"
     inkscape:document-units="mm"
     inkscape:current-layer="layer1"
     showgrid="false"
     fit-margin-top="0"
     fit-margin-left="0"
     fit-margin-right="0"
     fit-margin-bottom="0"
     inkscape:pagecheckerboard="true"
     borderlayer="false"
     inkscape:window-width="1853"
     inkscape:window-height="1025"
     inkscape:window-x="67"
     inkscape:window-y="27"
     inkscape:window-maximized="1" />
  <metadata
     id="metadata1648">
    <rdf:RDF>
      <cc:Work
         rdf:about="">
        <dc:format>image/svg+xml</dc:format>
        <dc:type
           rdf:resource="http://purl.org/dc/dcmitype/StillImage" />
        <dc:title></dc:title>
      </cc:Work>
    </rdf:RDF>
  </metadata>
  <g
     inkscape:label="Layer 1"
     inkscape:groupmode="layer"
     id="layer1"
     transform="translate(-24.723566,-25.58893)">
    <g
       transform="matrix(0.35277777,0,0,-0.35277777,-7.8122696,169.28779)"
       id="g14">
      <g
         clip-path="url(#clipPath20)"
         id="g16">
        <g
           transform="translate(408,249)"
           id="g22">
          <g
             clip-path="url(#clipPath905)"
             id="g903">
            <g
               id="g901"
               inkscape:label="Clip">
              <path
                 d="m 0,0 c 0,-86.709 -70.291,-157 -157,-157 -86.708,0 -157,70.291 -157,157 0,86.708 70.292,157 157,157 C -70.291,157 0,86.708 0,0"
                 style="fill:#ff5555;fill-opacity:1;fill-rule:nonzero;stroke:none"
                 id="path24"
                 inkscape:connector-curvature="0" />
            </g>
          </g>
        </g>
        <g
           transform="translate(334.4385,211.5322)"
           id="g26">
          <path
             inkscape:connector-curvature="0"
             id="path28"
             style="fill:#249789;fill-opacity:1;fill-rule:nonzero;stroke:none"
             d="m 0,0 20.362,20.362 -0.15,50.981 -43.621,43.621 -50.981,0.151 -88.663,-88.663 -19.602,-19.602 94.753,-94.752 30.42,30.42 c 7.034,-14.045 21.549,-23.694 38.327,-23.694 23.665,0 42.848,19.184 42.848,42.849 C 23.693,-21.55 14.046,-7.033 0,0" />
        </g>
        <g
           transform="translate(351.6504,293.8755)"
           id="g30">
          <path
             inkscape:connector-curvature="0"
             id="path32"
             style="fill:#decdc0;fill-opacity:1;fill-rule:nonzero;stroke:none"
             d="m 0,0 -43.621,43.621 -50.981,0.15 -108.265,-108.265 94.753,-94.752 L 0.15,-50.981 Z" />
        </g>
        <g
           transform="translate(243.5361,134.6299)"
           id="g34">
          <path
             inkscape:connector-curvature="0"
             id="path36"
             style="fill:#9f9288;fill-opacity:1;fill-rule:nonzero;stroke:none"
             d="M 0,0 -94.752,94.752 -75.15,114.354 19.602,19.602 Z" />
        </g>
        <g
           transform="translate(319.0283,304.8745)"
           id="g38">
          <path
             inkscape:connector-curvature="0"
             id="path40"
             style="fill:#9f9288;fill-opacity:1;fill-rule:nonzero;stroke:none"
             d="m 0,0 c -3.167,3.168 -8.322,3.168 -11.49,0 -3.168,-3.167 -3.168,-8.322 0,-11.49 3.168,-3.168 8.323,-3.168 11.49,0 3.168,3.168 3.169,8.322 0,11.49 m -18.562,-18.562 c -7.066,7.067 -7.066,18.566 0,25.633 7.068,7.067 18.567,7.067 25.633,0 7.068,-7.067 7.068,-18.566 0,-25.633 -7.066,-7.066 -18.565,-7.066 -25.633,0" />
        </g>
        <g
           transform="translate(355.1318,184.2051)"
           id="g42">
          <path
             inkscape:connector-curvature="0"
             id="path44"
             style="fill:#008000;fill-opacity:1;fill-rule:nonzero;stroke:none"
             d="m 0,0 c 0,-23.665 -19.184,-42.849 -42.849,-42.849 -23.664,0 -42.848,19.184 -42.848,42.849 0,23.665 19.184,42.849 42.848,42.849 C -19.184,42.849 0,23.665 0,0" />
        </g>
        <g
           transform="translate(339.0215,197.2539)"
           id="g46">
          <path
             inkscape:connector-curvature="0"
             id="path48"
             style="fill:#ffffff;fill-opacity:1;fill-rule:nonzero;stroke:none"
             d="m 0,0 c -0.894,0.894 -2.344,0.894 -3.237,0 l -31.906,-31.905 -15.095,15.095 c -0.894,0.895 -2.344,0.895 -3.239,0 -0.893,-0.893 -0.893,-2.343 0,-3.237 l 16.188,-16.186 c 0.108,-0.225 0.246,-0.438 0.433,-0.624 0.446,-0.448 1.033,-0.671 1.618,-0.671 0.035,0 0.068,0.008 0.102,0.009 0.03,-0.001 0.058,-0.007 0.087,-0.007 0.586,0 1.172,0.223 1.619,0.671 0.185,0.183 0.321,0.395 0.429,0.617 L 0,-3.238 C 0.895,-2.344 0.895,-0.895 0,0" />
        </g>
        <g
           transform="translate(321.6006,298.9482)"
           id="g50">
          <path
             inkscape:connector-curvature="0"
             id="path52"
             style="fill:#ffffff;fill-opacity:1;fill-rule:nonzero;stroke:none"
             d="m 0,0 c 0,-4.473 -3.626,-8.1 -8.1,-8.1 -4.472,0 -8.099,3.627 -8.099,8.1 0,4.473 3.627,8.1 8.099,8.1 C -3.626,8.1 0,4.473 0,0" />
        </g>
      </g>
    </g>
  </g>
</svg>
