<?xml version="1.0" encoding="UTF-8" standalone="no"?>
<svg
   xmlns:dc="http://purl.org/dc/elements/1.1/"
   xmlns:cc="http://creativecommons.org/ns#"
   xmlns:rdf="http://www.w3.org/1999/02/22-rdf-syntax-ns#"
   xmlns:svg="http://www.w3.org/2000/svg"
   xmlns="http://www.w3.org/2000/svg"
   xmlns:sodipodi="http://sodipodi.sourceforge.net/DTD/sodipodi-0.dtd"
   xmlns:inkscape="http://www.inkscape.org/namespaces/inkscape"
   version="1.1"
   viewBox="0 0 266.21399 137.94313"
   enable-background="new 0 0 462 462"
   id="svg908"
   sodipodi:docname="nsu_rl_101.svg"
   width="266.21399"
   height="137.94313"
   inkscape:version="0.92.3 (2405546, 2018-03-11)">
  <metadata
     id="metadata914">
    <rdf:RDF>
      <cc:Work
         rdf:about="">
        <dc:format>image/svg+xml</dc:format>
        <dc:type
           rdf:resource="http://purl.org/dc/dcmitype/StillImage" />
        <dc:title />
      </cc:Work>
    </rdf:RDF>
  </metadata>
  <defs
     id="defs912" />
  <sodipodi:namedview
     pagecolor="#ffffff"
     bordercolor="#666666"
     borderopacity="1"
     objecttolerance="10"
     gridtolerance="10"
     guidetolerance="10"
     inkscape:pageopacity="0"
     inkscape:pageshadow="2"
     inkscape:window-width="1853"
     inkscape:window-height="1025"
     id="namedview910"
     showgrid="false"
     inkscape:zoom="1.8268398"
     inkscape:cx="223.51968"
     inkscape:cy="-24.085304"
     inkscape:window-x="67"
     inkscape:window-y="27"
     inkscape:window-maximized="1"
     inkscape:current-layer="g926" />
  <g
     id="g906"
     transform="matrix(0.2679635,0,0,0.2985782,159.43054,0)">
    <path
       d="m 167,142 c 4.142,0 7.5,-3.358 7.5,-7.5 v -8 c 0,-4.142 -3.358,-7.5 -7.5,-7.5 -4.142,0 -7.5,3.358 -7.5,7.5 v 8 c 0,4.142 3.357,7.5 7.5,7.5 z"
       id="path894"
       inkscape:connector-curvature="0" />
    <path
       d="m 295,142 c 4.142,0 7.5,-3.358 7.5,-7.5 v -8 c 0,-4.142 -3.358,-7.5 -7.5,-7.5 -4.142,0 -7.5,3.358 -7.5,7.5 v 8 c 0,4.142 3.357,7.5 7.5,7.5 z"
       id="path896"
       inkscape:connector-curvature="0" />
    <path
       d="m 382.5,336.234 v -67.468 c 9.29,-3.138 16,-11.93 16,-22.266 0,-12.958 -10.542,-23.5 -23.5,-23.5 h -34.11 c 10.826,-10.135 17.61,-24.536 17.61,-40.5 v -80 C 358.5,71.897 333.603,47 303,47 H 278.5 V 26.886 c 4.188,-2.546 7,-7.138 7,-12.386 C 285.5,6.505 278.995,0 271,0 c -7.995,0 -14.5,6.505 -14.5,14.5 0,5.248 2.812,9.84 7,12.386 V 47 h -65 V 26.886 c 4.188,-2.546 7,-7.138 7,-12.386 C 205.5,6.505 198.995,0 191,0 c -7.995,0 -14.5,6.505 -14.5,14.5 0,5.248 2.812,9.84 7,12.386 V 47 H 159 c -30.603,0 -55.5,24.897 -55.5,55.5 v 80 c 0,15.964 6.784,30.365 17.61,40.5 H 87 c -12.958,0 -23.5,10.542 -23.5,23.5 0,10.336 6.71,19.128 16,22.266 v 67.468 c -9.29,3.138 -16,11.93 -16,22.266 v 16 c 0,4.142 3.358,7.5 7.5,7.5 4.142,0 7.5,-3.358 7.5,-7.5 v -16 c 0,-4.687 3.813,-8.5 8.5,-8.5 4.687,0 8.5,3.813 8.5,8.5 v 16 c 0,4.142 3.358,7.5 7.5,7.5 4.142,0 7.5,-3.358 7.5,-7.5 v -16 c 0,-10.336 -6.71,-19.128 -16,-22.266 V 270 h 33 v 72.5 c 0,12.958 10.542,23.5 23.5,23.5 h 9.409 c 1.245,5.075 3.72,9.669 7.093,13.449 0,0.017 -0.003,0.034 -0.003,0.051 V 415 H 159 c -21.78,0 -39.5,17.72 -39.5,39.5 0,4.142 3.358,7.5 7.5,7.5 h 88 c 4.142,0 7.5,-3.358 7.5,-7.5 v -32 c 0,-4.142 -3.358,-7.5 -7.5,-7.5 h -0.5 v -35.5 c 0,-0.017 -0.002,-0.034 -0.003,-0.051 3.374,-3.78 5.849,-8.375 7.093,-13.449 h 18.819 c 1.245,5.075 3.72,9.669 7.093,13.449 0,0.017 -0.003,0.034 -0.003,0.051 V 415 H 247 c -4.142,0 -7.5,3.358 -7.5,7.5 v 32 c 0,4.142 3.358,7.5 7.5,7.5 h 88 c 4.142,0 7.5,-3.358 7.5,-7.5 0,-21.78 -17.72,-39.5 -39.5,-39.5 h -8.5 v -35.5 c 0,-0.017 -0.002,-0.034 -0.003,-0.051 3.374,-3.78 5.849,-8.375 7.093,-13.449 H 311 c 12.958,0 23.5,-10.542 23.5,-23.5 V 270 h 33 v 66.234 c -9.29,3.138 -16,11.93 -16,22.266 v 16 c 0,4.142 3.358,7.5 7.5,7.5 4.142,0 7.5,-3.358 7.5,-7.5 v -16 c 0,-4.687 3.813,-8.5 8.5,-8.5 4.687,0 8.5,3.813 8.5,8.5 v 16 c 0,4.142 3.358,7.5 7.5,7.5 4.142,0 7.5,-3.358 7.5,-7.5 v -16 c 0,-10.336 -6.71,-19.128 -16,-22.266 z M 375,255 c -4.687,0 -8.5,-3.813 -8.5,-8.5 0,-4.687 3.813,-8.5 8.5,-8.5 4.687,0 8.5,3.813 8.5,8.5 0,4.687 -3.813,8.5 -8.5,8.5 z M 118.5,102.5 C 118.5,80.168 136.668,62 159,62 h 144 c 22.332,0 40.5,18.168 40.5,40.5 v 48 c 0,8.239 -16.171,16.553 -30.019,21.169 C 291.56,178.976 262.268,183 231,183 199.732,183 170.439,178.976 148.519,171.669 134.671,167.053 118.5,158.739 118.5,150.5 Z m 0,80 v -8.518 c 5.971,4.143 14.148,8.208 25.275,11.918 23.41,7.803 54.387,12.1 87.225,12.1 32.838,0 63.815,-4.297 87.225,-12.101 11.128,-3.709 19.304,-7.775 25.275,-11.918 v 8.518 c 0,22.332 -18.168,40.5 -40.5,40.5 H 159 C 136.668,223 118.5,204.832 118.5,182.5 Z M 87,238 c 4.687,0 8.5,3.813 8.5,8.5 0,4.687 -3.813,8.5 -8.5,8.5 -4.687,0 -8.5,-3.813 -8.5,-8.5 0,-4.687 3.813,-8.5 8.5,-8.5 z m 21.903,17 c 1.027,-2.638 1.597,-5.503 1.597,-8.5 0,-2.997 -0.57,-5.862 -1.597,-8.5 H 127.5 v 17 z M 207.5,447 h -71.826 c 3.175,-9.853 12.432,-17 23.326,-17 h 48.5 z m -25,-32 v -26.175 c 2.706,0.76 5.555,1.175 8.5,1.175 2.945,0 5.794,-0.415 8.5,-1.175 V 415 Z m 8.5,-40 c -6.396,0 -11.942,-3.666 -14.679,-9 h 29.357 c -2.737,5.334 -8.282,9 -14.678,9 z m 135.326,72 H 254.5 V 430 H 303 c 10.894,0 20.151,7.147 23.326,17 z M 262.5,415 v -26.175 c 2.706,0.76 5.555,1.175 8.5,1.175 2.945,0 5.794,-0.415 8.5,-1.175 V 415 Z m 8.5,-40 c -6.396,0 -11.942,-3.666 -14.679,-9 h 29.357 c -2.737,5.334 -8.282,9 -14.678,9 z m 48.5,-32.5 c 0,4.687 -3.813,8.5 -8.5,8.5 H 151 c -4.687,0 -8.5,-3.813 -8.5,-8.5 V 235.496 c 5.215,1.627 10.757,2.504 16.5,2.504 h 144 c 5.743,0 11.286,-0.877 16.5,-2.504 z m 15,-104.5 h 18.597 c -1.027,2.638 -1.597,5.503 -1.597,8.5 0,2.997 0.57,5.862 1.597,8.5 H 334.5 Z"
       id="path898"
       inkscape:connector-curvature="0" />
    <path
       d="m 231,263 c -17.369,0 -31.5,14.131 -31.5,31.5 0,17.369 14.13,31.5 31.5,31.5 17.37,0 31.5,-14.131 31.5,-31.5 0,-17.369 -14.131,-31.5 -31.5,-31.5 z m 0,48 c -9.098,0 -16.5,-7.402 -16.5,-16.5 0,-9.098 7.401,-16.5 16.5,-16.5 9.099,0 16.5,7.402 16.5,16.5 0,9.098 -7.402,16.5 -16.5,16.5 z"
       id="path900"
       inkscape:connector-curvature="0" />
    <path
       d="m 175,271 c -4.142,0 -7.5,3.358 -7.5,7.5 v 32 c 0,4.142 3.358,7.5 7.5,7.5 4.142,0 7.5,-3.358 7.5,-7.5 v -32 c 0,-4.142 -3.358,-7.5 -7.5,-7.5 z"
       id="path902"
       inkscape:connector-curvature="0" />
    <path
       d="m 287,271 c -4.142,0 -7.5,3.358 -7.5,7.5 v 32 c 0,4.142 3.358,7.5 7.5,7.5 4.142,0 7.5,-3.358 7.5,-7.5 v -32 c 0,-4.142 -3.358,-7.5 -7.5,-7.5 z"
       id="path904"
       inkscape:connector-curvature="0" />
  </g>
  <g
     id="g926"
     transform="matrix(0.80091255,0,0,0.73399476,-0.45732107,11.544636)">
    <polygon
       style="fill:#434343"
       points="14.507,29.257 38.324,60.857 46.691,60.857 46.691,3.4 32.727,3.4 32.727,35 8.938,3.4 0.571,3.4 0.571,60.857 14.507,60.857 "
       id="polygon916" />
    <path
       style="clip-rule:evenodd;fill:#76c043;fill-rule:evenodd"
       inkscape:connector-curvature="0"
       d="m 52.717,11.143 8.311,2.686 -4.998,6.886 4.54,3.285 4.854,-6.686 4.712,6.485 4.569,-3.286 -4.94,-6.771 7.968,-2.6 L 75.991,5.8 68.024,8.372 V 0 C 66.168,0 64.283,0 62.426,0 V 8.372 L 54.459,5.8 Z"
       id="path918" />
    <path
       style="clip-rule:evenodd;fill:#434343;fill-rule:evenodd"
       inkscape:connector-curvature="0"
       d="M 96.324,20.829 V 3.4 h -1.2 V 18.343 L 84.016,3.4 h -0.628 v 17.429 h 1.199 V 5.886 L 95.724,20.829 Z M 107.004,8.2 c -3.541,0 -6.368,2.857 -6.368,6.4 0,3.543 2.827,6.372 6.368,6.372 3.541,0 6.396,-2.829 6.396,-6.372 0,-3.543 -2.855,-6.4 -6.396,-6.4 z m 0.029,1.086 c 2.855,0 5.254,2.314 5.254,5.314 0,3.028 -2.399,5.314 -5.254,5.314 -2.884,0 -5.255,-2.286 -5.255,-5.314 0,-3 2.371,-5.314 5.255,-5.314 z m 15.221,11.543 5.711,-12.457 h -1.199 l -4.854,10.6 -4.826,-10.6 h -1.199 l 5.739,12.457 z M 136.819,8.2 c -3.542,0 -6.397,2.857 -6.397,6.4 0,3.543 2.855,6.372 6.397,6.372 3.512,0 6.396,-2.829 6.396,-6.372 0,-3.543 -2.884,-6.4 -6.396,-6.4 z m 0.028,1.086 c 2.855,0 5.226,2.314 5.226,5.314 0,3.028 -2.37,5.314 -5.226,5.314 -2.913,0 -5.255,-2.286 -5.255,-5.314 0,-3 2.342,-5.314 5.255,-5.314 z M 151.497,8.2 c -2.484,0 -4.54,1.286 -4.54,3.371 0,1.6 0.942,2.8 3.998,3.143 l 1.742,0.2 c 1.428,0.143 2.998,0.4 2.998,2.543 0,1.771 -1.771,2.571 -3.77,2.571 h -0.114 c -1.971,0 -3.941,-0.942 -4.598,-2.229 l -0.686,0.629 c 0.8,1.514 2.97,2.571 5.283,2.571 h 0.229 c 2.627,0 4.798,-1.286 4.798,-3.6 0,-2.743 -2.113,-3.314 -3.97,-3.486 l -1.799,-0.2 c -2.57,-0.286 -2.971,-1.171 -2.971,-2.2 0,-1.457 1.542,-2.371 3.513,-2.371 h 0.229 c 1.399,0 3.198,0.771 4.026,2.028 l 0.686,-0.657 c -0.971,-1.4 -2.998,-2.314 -4.74,-2.314 h -0.314 z m 10.252,-1.6 c 0.429,0 0.743,-0.314 0.743,-0.686 0,-0.4 -0.314,-0.714 -0.743,-0.714 -0.428,0 -0.742,0.314 -0.742,0.714 -0.001,0.372 0.314,0.686 0.742,0.686 z m -0.542,14.229 h 1.113 V 8.372 h -1.113 z M 168.431,3.4 h -1.113 v 17.429 h 0.856 l 0.058,-3.314 c 0.942,2.057 3.055,3.458 5.482,3.458 3.541,0 6.312,-2.829 6.312,-6.372 0,-3.543 -2.771,-6.4 -6.312,-6.4 -2.342,0 -4.369,1.4 -5.283,3.371 z m 5.227,5.886 c 2.884,0 5.254,2.314 5.254,5.314 0,3.028 -2.37,5.314 -5.254,5.314 -2.885,0 -5.255,-2.286 -5.255,-5.314 0,-3 2.37,-5.314 5.255,-5.314 z M 184.966,6.6 c 0.399,0 0.742,-0.314 0.742,-0.686 0,-0.4 -0.343,-0.714 -0.742,-0.714 -0.429,0 -0.742,0.314 -0.742,0.714 0,0.372 0.314,0.686 0.742,0.686 z m -0.571,14.229 h 1.143 V 8.372 h -1.143 z M 197.731,9.286 V 8.2 h -0.229 c -2.827,0 -5.055,1.229 -6.025,3.857 l -0.086,-3.686 h -0.885 v 12.457 h 1.113 v -5.2 c 0,-3.485 1.514,-6.343 5.654,-6.343 h 0.458 z M 205.299,8.2 c -2.485,0 -4.541,1.286 -4.541,3.371 0,1.6 0.942,2.8 3.998,3.143 l 1.742,0.2 c 1.428,0.143 2.998,0.4 2.998,2.543 0,1.771 -1.771,2.571 -3.77,2.571 h -0.114 c -1.999,0 -3.94,-0.942 -4.598,-2.229 l -0.686,0.629 C 201.101,19.943 203.3,21 205.613,21 h 0.229 c 2.628,0 4.77,-1.286 4.77,-3.6 0,-2.743 -2.085,-3.314 -3.941,-3.486 l -1.799,-0.2 c -2.57,-0.286 -2.998,-1.171 -2.998,-2.2 0,-1.457 1.57,-2.371 3.541,-2.371 h 0.229 c 1.398,0 3.198,0.771 3.998,2.028 l 0.714,-0.657 C 209.384,9.114 207.357,8.2 205.615,8.2 Z m 18.876,12.629 h 1.285 l -2.37,-3.6 c -1.028,-1.628 -1.656,-2.571 -2.771,-2.886 0.886,-0.4 1.485,-1.343 2.428,-2.771 l 2.113,-3.2 h -1.285 l -1.714,2.657 c -1.342,2.086 -1.827,2.829 -3.884,2.829 h -2.113 V 3.4 h -1.113 v 17.429 h 1.113 v -5.886 h 2.456 c 2.057,0 2.542,0.714 3.884,2.829 z M 89.47,23.286 c -2.999,0 -5.797,1.829 -5.797,4.714 0,2.4 1.656,3.628 5.226,4.143 l 2.142,0.286 c 2.855,0.4 4.227,1.457 4.227,3.686 0,2.4 -2.342,3.857 -5.026,3.857 H 90.07 c -3.141,0 -5.254,-1.429 -6.054,-3.543 l -0.771,0.714 c 0.971,2.371 3.37,3.943 6.825,3.943 h 0.171 c 3.313,0 6.226,-1.943 6.226,-4.972 0,-2.971 -1.828,-4.314 -5.312,-4.8 l -2.142,-0.286 c -2.97,-0.428 -4.141,-1.343 -4.141,-3.057 0,-2.314 2.37,-3.543 4.598,-3.543 h 0.286 c 2.113,0 4.141,0.857 5.312,2.514 l 0.771,-0.743 C 94.526,24.342 92.241,23.284 89.756,23.284 H 89.47 Z m 13.136,6.228 h 1.914 v -1.057 h -1.914 v -4.2 h -1.114 v 4.2 H 99.58 v 1.057 h 1.913 v 11.4 h 1.114 v -11.4 z m 17.706,11.4 V 28.457 h -0.885 l -0.058,3.314 c -0.942,-2.086 -3.056,-3.486 -5.482,-3.486 -3.542,0 -6.312,2.857 -6.312,6.4 0,3.543 2.77,6.372 6.312,6.372 2.427,0 4.54,-1.429 5.482,-3.457 l 0.058,3.314 z M 113.972,40 c -2.884,0 -5.254,-2.314 -5.254,-5.314 0,-3.028 2.371,-5.343 5.254,-5.343 2.885,0 5.255,2.314 5.255,5.343 0,3 -2.37,5.314 -5.255,5.314 z m 13.422,-10.486 h 1.914 v -1.057 h -1.914 v -4.2 h -1.113 v 4.2 h -1.913 v 1.057 h 1.913 v 11.4 h 1.113 z m 11.338,-1.228 c -3.77,0 -6.34,2.857 -6.34,6.4 0,3.829 2.685,6.372 6.597,6.372 2.113,0 3.855,-0.771 5.197,-1.886 l -0.628,-0.714 c -1.257,0.972 -2.771,1.6 -4.569,1.571 -3.227,0 -5.454,-1.942 -5.454,-5.143 h 11.08 c 0.171,-0.686 0.086,-1.972 -0.257,-2.829 -0.858,-2.228 -2.857,-3.771 -5.626,-3.771 z m 0.028,1.028 c 2.256,0 3.884,1.257 4.598,3.085 0.2,0.486 0.286,1.171 0.286,1.657 h -10.053 c 0.172,-2.627 2.228,-4.742 5.169,-4.742 z M 96.981,43.4 h -1.2 v 9.828 c 0,4.086 -2.142,6.658 -5.94,6.658 -3.798,0 -5.911,-2.572 -5.911,-6.658 V 43.4 h -1.199 v 9.857 c 0,4.629 2.684,7.771 7.11,7.771 4.427,0 7.14,-3.143 7.14,-7.771 z m 11.137,4.801 c -1.913,0 -4.255,0.971 -5.254,3.457 L 102.807,48.4 h -0.885 v 12.428 h 1.142 V 55 c 0,-3.57 1.942,-5.713 4.94,-5.713 2.656,0 4.398,1.541 4.398,4.828 v 6.713 h 1.143 v -6.77 c -0.001,-3.744 -2.114,-5.857 -5.427,-5.857 z m 10.995,-1.573 c 0.429,0 0.742,-0.342 0.742,-0.715 0,-0.398 -0.313,-0.713 -0.742,-0.713 -0.429,0 -0.742,0.314 -0.742,0.713 0,0.374 0.313,0.715 0.742,0.715 z m -0.543,14.2 h 1.114 V 48.4 h -1.114 z m 10.995,0 5.711,-12.428 h -1.171 L 129.251,58.972 124.424,48.4 h -1.199 l 5.712,12.428 z M 144.1,48.201 c -3.77,0 -6.339,2.885 -6.339,6.398 0,3.857 2.684,6.373 6.597,6.4 2.113,0 3.854,-0.771 5.226,-1.914 l -0.657,-0.686 c -1.228,0.971 -2.77,1.572 -4.568,1.572 -3.228,-0.029 -5.455,-1.943 -5.455,-5.172 h 11.08 c 0.2,-0.658 0.086,-1.943 -0.228,-2.801 -0.886,-2.227 -2.885,-3.797 -5.656,-3.797 z m 0.029,1.056 c 2.256,0 3.912,1.258 4.598,3.057 0.199,0.514 0.313,1.172 0.285,1.686 h -10.023 c 0.171,-2.657 2.199,-4.743 5.14,-4.743 z m 17.134,0.03 v -1.086 h -0.229 c -2.827,0 -5.055,1.229 -6.025,3.885 L 154.895,48.4 h -0.856 v 12.428 h 1.113 v -5.199 c 0,-3.486 1.514,-6.342 5.654,-6.342 z m 7.569,-1.086 c -2.484,0 -4.541,1.285 -4.541,3.371 0,1.6 0.942,2.799 3.998,3.143 l 1.742,0.199 c 1.428,0.172 2.998,0.4 2.998,2.543 0,1.771 -1.771,2.602 -3.77,2.602 h -0.114 c -1.999,0 -3.969,-0.973 -4.598,-2.258 l -0.714,0.656 c 0.8,1.486 2.999,2.572 5.312,2.572 h 0.229 c 2.599,0 4.77,-1.314 4.77,-3.629 0,-2.742 -2.085,-3.285 -3.941,-3.486 l -1.799,-0.199 c -2.57,-0.285 -2.999,-1.172 -2.999,-2.199 0,-1.457 1.571,-2.344 3.542,-2.344 h 0.229 c 1.398,0 3.198,0.771 3.998,2 l 0.714,-0.629 c -0.972,-1.428 -2.999,-2.342 -4.741,-2.342 z m 10.251,-1.573 c 0.428,0 0.742,-0.342 0.742,-0.715 0,-0.398 -0.314,-0.713 -0.742,-0.713 -0.429,0 -0.743,0.314 -0.743,0.713 0,0.374 0.315,0.715 0.743,0.715 z m -0.542,14.2 h 1.114 V 48.4 h -1.114 z m 8.396,-11.371 h 1.913 V 48.4 h -1.913 v -4.199 h -1.143 V 48.4 h -1.913 v 1.057 h 1.913 v 11.371 h 1.143 z M 204.271,48.4 h -1.143 v 5.742 c 0,3.543 -1.971,5.715 -4.94,5.715 -2.655,0 -4.426,-1.543 -4.426,-4.857 v -6.6 h -1.114 v 6.658 c 0,3.77 2.113,5.855 5.397,5.855 1.827,0 4.084,-0.855 5.083,-3.285 v 1.828 c 0,3.258 -1.599,5.086 -4.798,5.086 -1.855,0.029 -3.313,-0.6 -4.598,-1.57 l -0.656,0.742 c 1.37,1.143 3.112,1.885 5.254,1.885 3.913,-0.027 5.94,-2.457 5.94,-6.313 V 48.4 Z"
       id="path920" />
    <text
       xml:space="preserve"
       style="font-style:normal;font-weight:normal;font-size:25.97385597px;line-height:1.25;font-family:sans-serif;letter-spacing:0px;word-spacing:0px;fill:#000000;fill-opacity:1;stroke:none;stroke-width:0.64934635"
       x="4.9837542"
       y="102.14957"
       id="text5213"
       transform="scale(1.0290455,0.97177435)"><tspan
         sodipodi:role="line"
         id="tspan5211"
         x="4.9837542"
         y="102.14957"
         style="stroke-width:0.64934635">Introduction to </tspan><tspan
         sodipodi:role="line"
         x="4.9837542"
         y="134.61688"
         style="stroke-width:0.64934635"
         id="tspan5215">Reinforcement </tspan><tspan
         sodipodi:role="line"
         x="4.9837542"
         y="167.08421"
         style="stroke-width:0.64934635"
         id="tspan833">Learning </tspan></text>
  </g>
</svg>
