<?xml version="1.0" encoding="UTF-8" standalone="no"?>
<svg
   xmlns:dc="http://purl.org/dc/elements/1.1/"
   xmlns:cc="http://creativecommons.org/ns#"
   xmlns:rdf="http://www.w3.org/1999/02/22-rdf-syntax-ns#"
   xmlns:svg="http://www.w3.org/2000/svg"
   xmlns="http://www.w3.org/2000/svg"
   xmlns:sodipodi="http://sodipodi.sourceforge.net/DTD/sodipodi-0.dtd"
   xmlns:inkscape="http://www.inkscape.org/namespaces/inkscape"
   width="300"
   height="300"
   version="1.1"
   viewBox="0 0 1087.4 922.52"
   id="svg24"
   sodipodi:docname="twitter-bird-hat.svg"
   inkscape:version="0.92.3 (2405546, 2018-03-11)">
  <metadata
     id="metadata28">
    <rdf:RDF>
      <cc:Work
         rdf:about="">
        <dc:format>image/svg+xml</dc:format>
        <dc:type
           rdf:resource="http://purl.org/dc/dcmitype/StillImage" />
        <dc:title></dc:title>
      </cc:Work>
    </rdf:RDF>
  </metadata>
  <sodipodi:namedview
     pagecolor="#ffffff"
     bordercolor="#666666"
     borderopacity="1"
     objecttolerance="10"
     gridtolerance="10"
     guidetolerance="10"
     inkscape:pageopacity="0"
     inkscape:pageshadow="2"
     inkscape:window-width="1680"
     inkscape:window-height="1022"
     id="namedview26"
     showgrid="false"
     inkscape:zoom="2.2250293"
     inkscape:cx="154.74146"
     inkscape:cy="127.65282"
     inkscape:window-x="1920"
     inkscape:window-y="0"
     inkscape:window-maximized="1"
     inkscape:current-layer="g22" />
  <defs
     id="defs8">
    <clipPath
       id="d">
      <path
         d="M 0,841.89 H 1190.55 V 0 H 0 Z"
         id="path2" />
    </clipPath>
    <clipPath
       id="c">
      <path
         d="m613.99 554.85h149.98v-149.98h-149.98z"
         id="path5" />
    </clipPath>
    <linearGradient
       id="b"
       x1="1966.9301"
       x2="3508.2493"
       y1="5243.5303"
       y2="5243.5303"
       gradientTransform="scale(0.99204691,1.0080169)"
       gradientUnits="userSpaceOnUse">
      <stop
         offset="0"
         id="stop7" />
      <stop
         stop-color="#383838"
         offset=".76854"
         id="stop9" />
      <stop
         stop-color="#262626"
         offset=".9143"
         id="stop11" />
      <stop
         offset="1"
         id="stop13" />
    </linearGradient>
    <linearGradient
       id="c-3"
       x1="701.17261"
       x2="2730.3171"
       y1="4961.2578"
       y2="4961.2578"
       gradientTransform="scale(1.5631151,0.63974815)"
       gradientUnits="userSpaceOnUse">
      <stop
         stop-color="#28292b"
         offset="0"
         id="stop21" />
      <stop
         stop-color="#1a2334"
         offset="1"
         id="stop23" />
    </linearGradient>
    <linearGradient
       id="d-3"
       x1="3077.3286"
       x2="3300.3845"
       y1="2323.3081"
       y2="2323.3081"
       gradientTransform="scale(0.53557352,1.8671573)"
       gradientUnits="userSpaceOnUse">
      <stop
         stop-color="#6cbb73"
         offset="0"
         id="stop26" />
      <stop
         stop-color="#7ccf83"
         offset="1"
         id="stop28" />
    </linearGradient>
    <linearGradient
       id="e"
       x1="428.11465"
       x2="446.91025"
       y1="479.19504"
       y2="479.19504"
       gradientTransform="scale(0.77820464,1.2850091)"
       gradientUnits="userSpaceOnUse">
      <stop
         stop-color="#fff"
         offset="0"
         id="stop16" />
      <stop
         stop-color="#919191"
         offset="1"
         id="stop18" />
    </linearGradient>
    <radialGradient
       id="a"
       cx="242.94"
       cy="408.89999"
       r="11.617"
       gradientTransform="matrix(0.88378,0,0,1.2622,-56.723,-278.2)"
       gradientUnits="userSpaceOnUse">
      <stop
         stop-color="#6cbb73"
         offset="0"
         id="stop31" />
      <stop
         stop-color="#7ccf83"
         offset="1"
         id="stop33" />
    </radialGradient>
    <linearGradient
       id="f"
       x1="252.7332"
       x2="416.43295"
       y1="6177.5923"
       y2="6177.5923"
       gradientTransform="scale(1.4707413,0.67992924)"
       gradientUnits="userSpaceOnUse">
      <stop
         offset="0"
         id="stop2" />
      <stop
         stop-color="#797979"
         offset="1"
         id="stop4" />
    </linearGradient>
  </defs>
  <g
     transform="matrix(6.93316,0,0,-6.93316,-4213.679,3797.8367)"
     id="g22">
    <g
       clip-path="url(#d)"
       id="g20">
      <g
         clip-path="url(#c)"
         id="g14"
         style="opacity:0.7">
        <g
           transform="translate(763.98,427.66)"
           id="g12">
          <path
             d="m 0,0 c 0,-12.587 -10.206,-22.791 -22.792,-22.791 h -104.4 c -12.586,0 -22.791,10.204 -22.791,22.791 v 104.4 c 0,12.587 10.205,22.791 22.791,22.791 h 104.4 C -10.206,127.191 0,116.987 0,104.4 Z"
             id="path10"
             inkscape:connector-curvature="0"
             style="fill:#60caef" />
        </g>
      </g>
      <g
         transform="translate(742.57,507.31)"
         id="g18">
        <path
           d="m 0,0 c -3.523,-1.563 -7.312,-2.62 -11.285,-3.094 4.056,2.432 7.176,6.281 8.64,10.87 -3.792,-2.252 -7.996,-3.888 -12.474,-4.77 -3.587,3.821 -8.695,6.206 -14.345,6.206 -10.852,0 -19.65,-8.799 -19.65,-19.649 0,-1.542 0.173,-3.039 0.508,-4.476 -16.332,0.816 -30.807,8.639 -40.5,20.531 -1.688,-2.906 -2.658,-6.28 -2.658,-9.881 0,-6.815 3.468,-12.834 8.737,-16.353 -3.218,0.097 -6.248,0.988 -8.898,2.459 v -0.248 c 0,-9.52 6.774,-17.463 15.76,-19.268 -1.648,-0.447 -3.389,-0.693 -5.176,-0.693 -1.264,0 -2.499,0.127 -3.699,0.357 2.501,-7.806 9.756,-13.486 18.353,-13.648 -6.72,-5.268 -15.19,-8.412 -24.402,-8.412 -1.584,0 -3.146,0.095 -4.683,0.275 8.693,-5.568 19.022,-8.824 30.124,-8.824 36.139,0 55.901,29.935 55.901,55.904 0,0.849 -0.021,1.696 -0.053,2.545 C -5.968,-7.402 -2.641,-3.942 0,0"
           id="path16"
           inkscape:connector-curvature="0"
           style="fill:#ffeed7" />
      </g>
    </g>
  </g>
  <g
     id="g4597"
     transform="matrix(0.70513959,0,0,0.61352659,510.28613,63.02692)">
    <path
       id="path38"
       d="m 194.25,118.58 h 191.78 l 10.731,143.24 c -1.3662,24.441 -2.0223,25.234 -12.11,36.103 -12.406,10.523 -27.436,16.085 -41.118,20.055 -34.324,9.9573 -72.241,9.8901 -118,-12.047 -14.913,-6.6951 -21.561,-36.063 -20.553,-48.128 l -10.731,-139.23 z"
       style="fill:url(#b);stroke:#d3d3d3;stroke-width:0.241"
       inkscape:connector-curvature="0" />
    <path
       id="path40"
       d="m 77.846,133.73 207.06,-64.914 215.89,59.504 -208.32,113.6 z"
       style="fill:url(#c-3)"
       inkscape:connector-curvature="0" />
    <path
       id="path42"
       d="m 156.2,270.23 11.38,-0.434 c 6.4356,37.358 18.188,89.281 14.607,97.738 -4.5702,13.934 -26.14,19.817 -31.226,3.9227 0.29347,-30.053 6.0965,-61.217 5.238,-101.23 z"
       style="fill:url(#d-3)"
       inkscape:connector-curvature="0" />
    <path
       id="path44"
       d="m 307.42,124.08 c -7.4928,5.8509 -23.187,-5.2387 -25.718,-0.56947 -0.2645,0.48917 -0.003,3.2578 0.0364,4.0787 6.1793,6.4497 18.105,6.5677 25.369,0.0803 l 0.3129,-3.5895 z"
       inkscape:connector-curvature="0"
       style="fill:#373737" />
    <path
       id="path46"
       d="m 289.64,123.81 6.3936,2.7054 c -32.245,11.811 -117.52,23.651 -133.29,45.688 -4.748,6.7691 -0.22818,37.437 -1.7408,56.098 l -7.4968,0.0595 c 1.0305,-18.249 -2.2354,-45.378 1.1198,-55.872 3.658,-10.697 18.8,-24.622 135.02,-48.679 z"
       inkscape:connector-curvature="0"
       style="fill:#72c482" />
    <rect
       id="rect48"
       height="3.2807"
       width="1.9868"
       y="192.33"
       x="165.61"
       transform="matrix(6.5484,-1.325,1.1025,9.3138,-1144.7,-1327.4)"
       style="fill:url(#e)" />
    <g
       id="g56"
       style="fill:#424345">
      <path
         id="path50"
         d="m 305.85,119.56 c 23.679,-11.203 48.27,-20.712 77.334,-20.082 1.2994,-0.44119 3.4984,2.9443 -1.2498,3.1238 -25.614,1.458 -49.599,11.441 -74.054,18.966 -3.0878,1.4886 -3.9078,-1.195 -2.031,-2.0082 z"
         inkscape:connector-curvature="0" />
      <path
         id="path52"
         d="m 306.27,127.25 c 28.032,8.6525 56.264,19.679 84.724,44.11 1.4664,0.64139 2.2394,5.6954 -2.5269,1.9753 -25.913,-19.597 -53.743,-29.671 -81.02,-42.492 -3.6669,-1.1016 -3.3675,-4.351 -1.1766,-3.5934 z"
         inkscape:connector-curvature="0" />
      <path
         id="path54"
         d="M 289.96,120.91 C 262.293,110 233.466,100.337 198.869,98.225 c -1.5259,-0.46265 -4.2915,1.9955 1.3482,2.5621 30.4,3.4405 58.485,13.422 87.238,21.516 3.6066,1.4444 4.7008,-0.58676 2.5046,-1.3928 z"
         inkscape:connector-curvature="0" />
    </g>
    <path
       id="path58"
       d="m 168.25,237.92 a 10.267,14.663 0 1 1 -20.533,0"
       style="fill:url(#a)"
       inkscape:connector-curvature="0" />
    <path
       id="path60"
       d="m 307.42,124.08 c -5.7665,5.92 -19.883,5.7224 -25.789,0 0,-4.1734 5.773,-7.5566 12.895,-7.5566 7.1215,0 12.895,3.3832 12.895,7.5566 z"
       style="fill:url(#f)"
       inkscape:connector-curvature="0" />
    <path
       id="path62"
       d="m 310.88,123.2 c 23.679,-11.203 48.27,-20.712 77.334,-20.082 1.2994,-0.4412 3.4984,2.9445 -1.2498,3.1238 -25.613,1.458 -49.599,11.442 -74.054,18.966 -3.0877,1.4886 -3.9077,-1.195 -2.0308,-2.0082 z"
       inkscape:connector-curvature="0" />
    <path
       id="path64"
       d="m 302.28,130.22 c 28.336,8.8534 56.868,20.095 85.592,44.814 1.4818,0.65294 2.2492,5.7382 -2.5623,1.972 -26.161,-19.844 -54.289,-30.126 -81.85,-43.166 -3.7066,-1.1278 -3.3944,-4.3928 -1.1799,-3.619 z"
       inkscape:connector-curvature="0" />
    <path
       id="path66"
       d="m 193.88,97.166 c 28.649,3.4451 57.674,8.7473 87.92,24.644 1.5127,0.32976 2.6594,4.2407 -2.3784,1.8729 -27.343,-12.376 -55.896,-16.972 -84.099,-23.813 -3.7453,-0.42677 -3.6869,-3.038 -1.4417,-2.7044 z"
       inkscape:connector-curvature="0" />
  </g>
</svg>
